<?xml version="1.0" standalone="no"?>
<!DOCTYPE svg PUBLIC "-//W3C//DTD SVG 20010904//EN"
 "http://www.w3.org/TR/2001/REC-SVG-20010904/DTD/svg10.dtd">
<svg version="1.0" xmlns="http://www.w3.org/2000/svg"
 width="335.000000pt" height="335.000000pt" viewBox="0 0 335.000000 335.000000"
 preserveAspectRatio="xMidYMid meet">
<metadata>
Created by potrace 1.11, written by Peter Selinger 2001-2013
</metadata>
<g transform="translate(0.000000,335.000000) scale(0.100000,-0.100000)"
fill="#000000" stroke="none">
<path d="M1698 3345 c-1 -2 -32 -6 -68 -9 -141 -13 -365 -84 -498 -158 -93
-51 -132 -78 -220 -151 -74 -62 -236 -236 -227 -245 2 -2 43 20 92 50 277 172
570 243 988 241 195 -1 276 -14 594 -95 202 -51 284 -56 348 -19 44 26 91 83
116 143 l15 37 -111 39 c-154 55 -369 118 -462 137 -92 18 -266 32 -401 33
-89 0 -164 -1 -166 -3z"/>
<path d="M1581 2914 c-308 -43 -538 -177 -714 -416 -31 -42 -57 -80 -57 -83 0
-4 -9 -19 -19 -33 -62 -87 -138 -327 -157 -492 -6 -56 -5 -291 1 -335 42 -276
103 -442 230 -620 183 -258 478 -438 787 -482 68 -10 327 -10 398 0 125 17
290 64 390 111 l46 21 -2 360 c-2 433 -6 464 -67 523 -58 56 -150 82 -307 86
l-35 1 -1 58 0 57 418 0 c230 0 418 3 419 8 5 43 2 265 -3 269 -6 3 -726 6
-1049 3 l-65 0 0 -325 -1 -325 196 -2 195 -3 1 -222 0 -222 -50 -15 c-107 -32
-238 -41 -353 -25 -386 55 -645 410 -637 876 4 184 33 309 108 458 96 193 260
338 441 390 114 33 319 24 464 -21 147 -45 302 -163 390 -296 13 -21 27 -38
31 -39 43 -7 474 -2 479 6 4 6 7 106 7 224 l1 213 -33 27 c-18 14 -55 39 -83
54 l-50 28 0 -198 0 -198 -45 0 c-25 0 -45 4 -45 9 0 24 -124 190 -195 261
-153 153 -341 252 -570 300 -102 22 -338 26 -464 9z"/>
<path d="M623 2728 c-58 -49 -184 -177 -228 -233 -22 -27 -43 -52 -46 -55 -13
-11 -98 -148 -126 -205 -53 -106 -92 -238 -110 -370 -13 -96 -9 -372 6 -450
46 -235 159 -442 341 -626 82 -82 198 -179 214 -179 3 0 -14 31 -39 69 -141
218 -230 484 -262 781 -10 86 -9 345 0 443 12 119 52 309 92 432 39 120 125
308 175 379 17 26 29 46 26 46 -3 0 -22 -14 -43 -32z"/>
<path d="M3135 1542 c-62 -11 -115 -36 -148 -70 -69 -70 -70 -79 -72 -526 -2
-382 -3 -400 -21 -412 -39 -25 -337 -116 -450 -138 -11 -2 -64 -13 -119 -24
-210 -43 -342 -56 -560 -55 -435 3 -723 68 -987 226 -43 25 -78 43 -78 39 1
-13 128 -151 196 -213 40 -36 141 -113 179 -136 188 -114 385 -185 590 -213
69 -9 436 -6 485 3 14 3 48 8 75 12 28 3 86 13 130 21 44 8 91 17 105 20 63
12 255 71 349 109 l105 42 0 155 1 156 110 57 c61 32 131 69 158 82 26 13 47
29 48 36 0 7 1 198 2 424 l2 413 -40 -2 c-22 -1 -49 -4 -60 -6z"/>
</g>
</svg>
